+15_ID_stride6.mot
nRows=10
nColumns=38

name +15_ID_stride6.mot
datacolumns 38
datarows 10
range 2.8650000000 2.9100000000
endheader
time	pelvis_tilt_moment	pelvis_list_moment	pelvis_rotation_moment	pelvis_tx_force	pelvis_ty_force	pelvis_tz_force	hip_flexion_r_moment	hip_adduction_r_moment	hip_rotation_r_moment	knee_angle_r_moment	ankle_angle_r_moment	subtalar_angle_r_moment	mtp_angle_r_moment	hip_flexion_l_moment	hip_adduction_l_moment	hip_rotation_l_moment	knee_angle_l_moment	ankle_angle_l_moment	subtalar_angle_l_moment	mtp_angle_l_moment	lumbar_extension_moment	lumbar_bending_moment	lumbar_rotation_moment	arm_flex_r_moment	arm_add_r_moment	arm_rot_r_moment	elbow_flex_r_moment	pro_sup_r_moment	wrist_flex_r_moment	wrist_dev_r_moment	arm_flex_l_moment	arm_add_l_moment	arm_rot_l_moment	elbow_flex_l_moment	pro_sup_l_moment	wrist_flex_l_moment	wrist_dev_l_moment
        2.8650000000	       25.4374168744	       -2.0899799635	       30.5547225935	       -8.0394318567	      -15.1719112496	      -25.3891854844	       -9.5010689094	      -11.5559227451	       -0.3518508371	       -1.0614849442	        2.5530002301	       -0.5334232179	        0.1379888618	      -13.0019949886	      -40.6027348786	      -15.9237124099	        8.3619080243	     -196.1692370306	       24.7041180792	       -0.0396365183	       41.2437887453	       11.5854957282	       32.5092360381	        7.3044415955	        4.3884574898	        3.2988953873	        6.0794593502	       -0.0200812895	        0.4797467576	       -0.4444778662	        0.9788963375	       -0.4488377895	       -2.3324466453	        5.8301551445	       -0.1953073006	       -0.1657234426	       -0.5692548058	
        2.8700000000	       29.6357809784	       -3.1047818975	       20.7983698422	       -9.2329452387	      -16.7668990320	      -38.3193061857	      -12.7782452649	      -13.7265237598	       -0.1747294192	       -1.5491917927	        2.5761044558	       -0.5996163812	        0.1346097693	        0.8422133397	      -38.6584114149	       -9.3297016386	        9.9908218160	     -182.6307661448	       25.3732331828	       -0.0421784772	       29.8549872960	        5.6143877812	       31.2800149960	        7.0730531430	        4.1152171312	        3.1155259002	        5.5973809157	       -0.0135043931	        0.4505047677	       -0.3994253986	        0.7598568873	       -0.5609641343	       -2.2762736081	        5.2292703144	       -0.1843777639	       -0.1720094304	       -0.5113449632	
        2.8750000000	       28.0300304659	       -8.7316826205	        9.9193656069	       -8.6542160159	      -10.9896135830	      -45.4380263769	      -16.6199001173	      -14.4596111634	       -0.2980257917	       -2.3021703197	        2.5908613047	       -0.6551965724	        0.1315580164	       10.4664601860	      -38.7875539524	       -2.0416334895	        8.8660777681	     -168.6006906084	       25.2892554887	       -0.0442366245	       19.1006916726	        0.8764526475	       29.4067859989	        6.7249397278	        3.6880812188	        2.8315623745	        5.0931594824	       -0.0095975794	        0.4113253698	       -0.3550468848	        0.5451885207	       -0.4794297322	       -2.0892506010	        4.6115745008	       -0.1698449616	       -0.1657016599	       -0.4496852379	
        2.8800000000	       23.5294201383	      -19.5069941825	        1.7809790892	       -5.5450847010	       -0.6249920555	      -46.5814016340	      -20.7284996853	      -13.4955624970	       -0.6550697073	       -3.2980116735	        2.6078818186	       -0.6997729104	        0.1294924023	       13.0069595083	      -38.2421935948	        2.6696952577	        4.6289403509	     -154.6092340470	       24.2833367309	       -0.0459468392	        9.5748998291	       -2.6735319858	       27.2338112948	        6.3182049031	        3.1318665958	        2.4734299759	        4.5833743670	       -0.0074994606	        0.3658023614	       -0.3126399397	        0.3262655889	       -0.2661252785	       -1.8192075118	        3.9894451841	       -0.1528549723	       -0.1523885789	       -0.3869742214	
        2.8850000000	       17.3280458093	      -31.5568515506	        0.5414374378	        0.5118582027	        7.5250963216	      -47.4316493518	      -24.8915133094	      -10.4700989144	       -1.2329225805	       -4.5398705248	        2.6314727049	       -0.7334208013	        0.1292618256	       13.7497451292	      -35.6920522496	        3.1210605741	       -1.9770302623	     -140.7477221181	       22.3354970361	       -0.0470285786	        1.6312996293	       -5.3048957203	       25.1406469120	        5.8989661439	        2.4964676626	        2.0838080928	        4.0709657069	       -0.0055492252	        0.3186271878	       -0.2718475332	        0.0739807938	        0.0483987335	       -1.5114101319	        3.3618706240	       -0.1347340386	       -0.1356718107	       -0.3247104298	
        2.8900000000	       10.8454908126	      -35.1406827593	        1.5874585115	        7.8229074816	        8.0793320490	      -50.0829309065	      -29.0496615968	       -5.0866446097	       -1.8899958089	       -6.1027256248	        2.6615447014	       -0.7558023992	        0.1299461455	       15.6716729412	      -30.0964716813	        1.9817821408	       -5.2434261493	     -126.5164477824	       20.3084536891	       -0.0471140970	       -4.4760460201	       -7.2340441234	       23.6387926146	        5.4865113252	        1.8449376573	        1.7190260713	        3.5416189005	       -0.0023742122	        0.2753163223	       -0.2304580720	       -0.2622148001	        0.3778819018	       -1.2229524361	        2.7124848638	       -0.1167101512	       -0.1229863916	       -0.2628660121	
        2.8950000000	        4.2702188921	      -29.5835903232	        7.7055421718	       14.9501650533	       -6.2979746196	      -58.8606618757	      -33.2357370112	        2.4701043405	       -2.4996153579	       -8.0754627461	        2.6941153039	       -0.7700599414	        0.1326715665	       26.3552424313	      -22.2628313682	        0.0145039287	       -5.7798556458	     -111.4560797636	       18.5777964307	       -0.0452147629	       -9.0761228270	       -8.6827530458	       22.7398700913	        5.0781165359	        1.2167004581	        1.4063702038	        2.9807757340	        0.0039549021	        0.2380980137	       -0.1864154920	       -0.7360525841	        0.6726096859	       -0.9806072181	        2.0271834836	       -0.0993513363	       -0.1156849642	       -0.2007355973	
        2.9000000000	       -2.9685665353	      -13.4398623719	       14.2237594751	       20.5344165796	      -35.6010106292	      -69.7908795262	      -37.6942766294	       11.3286663777	       -2.7593339884	      -10.6248804265	        2.7187887309	       -0.7763143966	        0.1362623338	       43.7138413589	      -14.2278303711	        0.1598383237	       -1.8269412270	      -94.9308473073	       16.9585785542	       -0.0403642197	      -12.1571369559	       -9.5729091437	       22.9090423717	        4.6257448642	        0.6542105605	        1.1879199924	        2.3525670216	        0.0142200085	        0.2104165613	       -0.1354278922	       -1.4022694337	        0.8736563500	       -0.8215159504	        1.2759750006	       -0.0828939922	       -0.1192200431	       -0.1357126301	
        2.9050000000	      -10.8217745747	       10.4964532845	       21.2324951332	       24.8363247772	      -82.8962544995	      -71.7153639789	      -42.1421448162	       20.7334059300	       -2.6265288501	      -13.8022285232	        2.7417116975	       -0.7792767735	        0.1408540769	       64.2276173152	       -6.8705686450	        1.2563519277	        5.4077325817	      -78.0667629822	       15.1192986567	       -0.0305835157	      -13.9949588234	       -9.6476541340	       23.7321457549	        4.0690444267	        0.1688539477	        1.0797893163	        1.6326219560	        0.0293239822	        0.1920961447	       -0.0748223855	       -2.3131341730	        0.9122886126	       -0.7550363288	        0.4434521958	       -0.0669136253	       -0.1317472547	       -0.0658124088	
        2.9100000000	      -18.6897559477	       31.5966361006	       28.4769699391	       28.2517747740	     -144.1975269272	      -66.5505891313	      -46.8801227749	       29.4823120143	       -1.9266121664	      -17.6729518480	        2.7468087954	       -0.7790510615	        0.1456007737	       79.4849761919	       -0.5587539209	        2.5863771832	        9.3550916145	      -63.0839520800	       13.0631516145	       -0.0146746169	      -14.8046220259	       -9.2544497960	       25.2650157290	        3.3433891514	       -0.2348426276	        1.0619488773	        0.8117656357	        0.0487422792	        0.1814330400	       -0.0034475482	       -3.4706142037	        0.8862981494	       -0.7479778285	       -0.4678353171	       -0.0508544379	       -0.1534907312	        0.0100422116	
